name Precision Landing05_filtered_grf.mot
datacolumns 37
datarows 15
range 0.665500 0.672500
endheader
time	1_ground_force_vx	1_ground_force_vy	1_ground_force_vz	1_ground_force_px	1_ground_force_py	1_ground_force_pz	1_ground_torque_x	1_ground_torque_y	1_ground_torque_z	2_ground_force_vx	2_ground_force_vy	2_ground_force_vz	2_ground_force_px	2_ground_force_py	2_ground_force_pz	2_ground_torque_x	2_ground_torque_y	2_ground_torque_z	3_ground_force_vx	3_ground_force_vy	3_ground_force_vz	3_ground_force_px	3_ground_force_py	3_ground_force_pz	3_ground_torque_x	3_ground_torque_y	3_ground_torque_z	4_ground_force_vx	4_ground_force_vy	4_ground_force_vz	4_ground_force_px	4_ground_force_py	4_ground_force_pz	4_ground_torque_x	4_ground_torque_y	4_ground_torque_z
            0.665500	           -0.000000	           -0.000000	            0.000000	            0.085807	            0.000000	            0.311172	           -0.000000	            0.000000	            0.000000	            0.000000	            0.000000	            0.000000	           -0.174735	            0.000000	            0.224768	            0.000000	           -0.000000	           -0.000000	          -28.991562	          533.211036	           82.118763	            0.352153	            1.255052	            1.893385	            1.352874	          -24.881981	           -3.832024	           14.437902	          466.065595	           40.483198	           -0.289637	            1.264003	            1.902667	            0.845083	           27.279886	            2.369574
            0.666000	           -0.000000	           -0.000000	            0.000000	            0.085807	            0.000000	            0.311172	           -0.000000	            0.000000	            0.000000	            0.000000	           -0.000000	            0.000000	           -0.174735	            0.000000	            0.224768	            0.000000	           -0.000000	           -0.000000	          -29.006686	          533.021540	           81.904391	            0.352159	            1.255051	            1.893383	            1.353714	          -24.875609	           -3.822400	           14.419368	          465.319100	           40.111408	           -0.289632	            1.264002	            1.902667	            0.844372	           27.248238	            2.348851
            0.666500	           -0.000000	           -0.000000	            0.000000	            0.085807	            0.000000	            0.311172	           -0.000000	            0.000000	            0.000000	            0.000000	           -0.000000	            0.000000	           -0.174735	            0.000000	            0.224768	            0.000000	           -0.000000	           -0.000000	          -29.015863	          532.825918	           81.689673	            0.352165	            1.255051	            1.893380	            1.354278	          -24.868958	           -3.812760	           14.399986	          464.570189	           39.740952	           -0.289627	            1.264002	            1.902666	            0.843607	           27.216337	            2.328180
            0.667000	           -0.000000	           -0.000000	           -0.000000	            0.085807	            0.000000	            0.311172	           -0.000000	            0.000000	            0.000000	            0.000000	           -0.000000	            0.000000	           -0.174735	            0.000000	            0.224768	            0.000000	           -0.000000	           -0.000000	          -29.019234	          532.624181	           81.474645	            0.352172	            1.255050	            1.893377	            1.354570	          -24.862023	           -3.803103	           14.379726	          463.818966	           39.371907	           -0.289622	            1.264001	            1.902666	            0.842788	           27.184183	            2.307567
            0.667500	           -0.000000	           -0.000000	           -0.000000	            0.085807	            0.000000	            0.311172	           -0.000000	            0.000000	            0.000000	            0.000000	           -0.000000	            0.000000	           -0.174735	            0.000000	            0.224768	           -0.000000	           -0.000000	           -0.000000	          -29.016970	          532.416348	           81.259350	            0.352178	            1.255050	            1.893374	            1.354599	          -24.854797	           -3.793431	           14.358553	          463.065535	           39.004361	           -0.289617	            1.264001	            1.902665	            0.841912	           27.151780	            2.287015
            0.668000	           -0.000000	           -0.000000	           -0.000000	            0.085807	            0.000000	            0.311172	           -0.000000	           -0.000000	            0.000000	            0.000000	           -0.000000	            0.000000	           -0.174735	            0.000000	            0.224768	           -0.000000	           -0.000000	           -0.000000	          -29.009318	          532.202157	           81.045726	            0.352184	            1.255049	            1.893371	            1.354376	          -24.847259	           -3.783833	           14.337097	          462.310420	           38.633121	           -0.289612	            1.264001	            1.902665	            0.841015	           27.119151	            2.266221
            0.668500	           -0.000000	           -0.000000	           -0.000000	            0.085807	            0.000000	            0.311172	           -0.000000	           -0.000000	            0.000000	            0.000000	           -0.000000	            0.000000	           -0.174735	            0.000000	            0.224768	           -0.000000	           -0.000000	           -0.000000	          -28.996479	          531.981935	           80.831948	            0.352190	            1.255048	            1.893368	            1.353910	          -24.839420	           -3.774224	           14.314625	          461.553294	           38.263602	           -0.289607	            1.264000	            1.902665	            0.840054	           27.086276	            2.245501
            0.669000	           -0.000000	           -0.000000	           -0.000000	            0.085807	            0.000000	            0.311172	           -0.000000	           -0.000000	            0.000000	            0.000000	           -0.000000	           -0.000000	           -0.174735	            0.000000	            0.224768	           -0.000000	            0.000000	           -0.000000	          -28.978709	          531.755729	           80.618090	            0.352196	            1.255047	            1.893364	            1.353212	          -24.831275	           -3.764604	           14.291082	          460.794259	           37.895918	           -0.289602	            1.264000	            1.902665	            0.839027	           27.053158	            2.224863
            0.669500	           -0.000000	           -0.000000	           -0.000000	            0.085807	            0.000000	            0.311172	           -0.000000	           -0.000000	            0.000000	           -0.000000	           -0.000000	           -0.000000	           -0.174735	            0.000000	            0.224768	           -0.000000	            0.000000	           -0.000000	          -28.956293	          531.523600	           80.404232	            0.352202	            1.255046	            1.893361	            1.352295	          -24.822820	           -3.754979	           14.266410	          460.033419	           37.530196	           -0.289598	            1.264000	            1.902665	            0.837929	           27.019799	            2.204315
            0.670000	           -0.000000	           -0.000000	           -0.000000	            0.085807	            0.000000	            0.311172	           -0.000000	           -0.000000	            0.000000	           -0.000000	           -0.000000	           -0.000000	           -0.174735	            0.000000	            0.224768	           -0.000000	            0.000000	           -0.000000	          -28.929534	          531.285617	           80.190459	            0.352209	            1.255045	            1.893357	            1.351173	          -24.814053	           -3.745349	           14.240544	          459.270876	           37.166569	           -0.289593	            1.263999	            1.902665	            0.836757	           26.986206	            2.183863
            0.670500	           -0.000000	           -0.000000	           -0.000000	            0.085807	            0.000000	            0.311172	           -0.000000	           -0.000000	            0.000000	           -0.000000	           -0.000000	           -0.000000	           -0.174735	            0.000000	            0.224768	           -0.000000	            0.000000	           -0.000000	          -28.899406	          531.041552	           79.978723	            0.352214	            1.255044	            1.893354	            1.349892	          -24.804959	           -3.735807	           14.214152	          458.507003	           36.801502	           -0.289588	            1.263999	            1.902665	            0.835550	           26.952399	            2.163301
            0.671000	           -0.000000	           -0.000000	           -0.000000	            0.085807	            0.000000	            0.311172	           -0.000000	           -0.000000	            0.000000	           -0.000000	           -0.000000	           -0.000000	           -0.174735	            0.000000	            0.224768	           -0.000000	            0.000000	           -0.000000	          -28.865608	          530.791822	           79.767255	            0.352220	            1.255042	            1.893350	            1.348436	          -24.795552	           -3.726269	           14.186412	          457.741626	           36.438827	           -0.289583	            1.263999	            1.902666	            0.834259	           26.918369	            2.142855
            0.671500	           -0.000000	           -0.000000	           -0.000000	            0.085807	            0.000000	            0.311172	           -0.000000	           -0.000000	            0.000000	           -0.000000	           -0.000000	           -0.000000	           -0.174735	            0.000000	            0.224768	           -0.000000	            0.000000	           -0.000000	          -28.828501	          530.536545	           79.556153	            0.352225	            1.255041	            1.893347	            1.346822	          -24.785835	           -3.716739	           14.157252	          456.974845	           36.078695	           -0.289578	            1.263999	            1.902667	            0.832880	           26.884122	            2.122533
            0.672000	           -0.000000	           -0.000000	           -0.000000	            0.085807	            0.000000	            0.311172	           -0.000000	           -0.000000	            0.000000	           -0.000000	           -0.000000	           -0.000000	           -0.174735	            0.000000	            0.224768	           -0.000000	            0.000000	           -0.000000	          -28.788459	          530.275855	           79.345515	            0.352231	            1.255039	            1.893343	            1.345069	          -24.775810	           -3.707220	           14.126599	          456.206761	           35.721259	           -0.289573	            1.263999	            1.902668	            0.831409	           26.849666	            2.102345
            0.672500	           -0.000000	           -0.000000	           -0.000000	            0.085807	            0.000000	            0.311172	           -0.000000	           -0.000000	            0.000000	           -0.000000	           -0.000000	           -0.000000	           -0.174735	            0.000000	            0.224768	           -0.000000	            0.000000	           -0.000000	          -28.745865	          530.009904	           79.135439	            0.352237	            1.255038	            1.893340	            1.343192	          -24.765480	           -3.697718	           14.094379	          455.437473	           35.366673	           -0.289568	            1.263998	            1.902669	            0.829841	           26.815009	            2.082300
